<svg width="36" height="17" viewBox="0 0 36 17" fill="none" xmlns="http://www.w3.org/2000/svg">
<g clip-path="url(#clip0_2_2148)">
<path fill-rule="evenodd" clip-rule="evenodd" d="M20.7279 12.5607L22.1421 11.1464L25.6777 14.682L24.2635 16.0962L20.7279 12.5607ZM20.7279 11.1464C18.3848 13.4896 14.5858 13.4896 12.2426 11.1464C9.89949 8.8033 9.89949 5.00431 12.2426 2.66117C14.5858 0.318022 18.3848 0.318022 20.7279 2.66117C23.0711 5.00431 23.0711 8.8033 20.7279 11.1464ZM19.3137 9.73224C20.8758 8.17014 20.8758 5.63748 19.3137 4.07538C17.7516 2.51328 15.219 2.51328 13.6569 4.07538C12.0948 5.63748 12.0948 8.17014 13.6569 9.73224C15.219 11.2943 17.7516 11.2943 19.3137 9.73224Z" fill="black"/>
</g>
<defs>
<clipPath id="clip0_2_2148">
<rect width="36" height="17" fill="white"/>
</clipPath>
</defs>
</svg>
