<svg width="36" height="17" viewBox="0 0 36 17" fill="none" xmlns="http://www.w3.org/2000/svg">
<path fill-rule="evenodd" clip-rule="evenodd" d="M12.0076 17C12.0025 15.735 12 15.0683 12 15C12 11.6863 14.6863 9 18 9C21.3137 9 24 11.6863 24 15V17H22V16C22 13.2386 21.0461 11 18 11C14.9539 11 14 13.2386 14 16C14 16.0434 14.001 16.3767 14.0029 17H12.0076Z" fill="black"/>
<path fill-rule="evenodd" clip-rule="evenodd" d="M18 8C15.7909 8 14 6.20914 14 4C14 1.79086 15.7909 0 18 0C20.2091 0 22 1.79086 22 4C22 6.20914 20.2091 8 18 8ZM18 6C19.1046 6 20 5.10457 20 4C20 2.89543 19.1046 2 18 2C16.8954 2 16 2.89543 16 4C16 5.10457 16.8954 6 18 6Z" fill="black"/>
</svg>
